<svg width="32" height="32" xmlns="http://www.w3.org/2000/svg">
  <defs>
    <linearGradient id="gradient" x1="0%" y1="0%" x2="100%" y2="0%">
      <stop offset="0%" style="stop-color:#40a9ff;stop-opacity:1" />
      <stop offset="100%" style="stop-color:#8BC34A;stop-opacity:1" />
    </linearGradient>
  </defs>
 <g>
  <title>background</title>
  <rect fill="none" id="canvas_background" height="402" width="582" y="-1" x="-1"/>
 </g>
 <g>
  <title>foot</title>
  <path fill="url(#gradient)" id="svg_1" d="m20.59375,3c-0.61819,0.09262 -1.201,0.73425 -1.46875,1.6875c-0.357,1.271 -0.01975,2.63625 0.78125,3.03125c0.8,0.396 1.73675,-0.32275 2.09375,-1.59375c0.357,-1.271 0.01975,-2.63625 -0.78125,-3.03125c-0.20025,-0.09875 -0.41894,-0.12462 -0.625,-0.09375zm-3.5,1c-0.61911,0.02609 -1.09698,0.71294 -1.0625,1.53125c0.03448,0.81831 0.56839,1.46359 1.1875,1.4375c0.61911,-0.02609 1.09698,-0.71294 1.0625,-1.53125c-0.03448,-0.81831 -0.56839,-1.46359 -1.1875,-1.4375zm-2.8125,1c-0.06714,0.00319 -0.12268,0.00916 -0.1875,0.03125c-0.51859,0.17669 -0.74918,0.92489 -0.5,1.65625c0.24918,0.73136 0.85641,1.17669 1.375,1c0.51859,-0.17669 0.74918,-0.92489 0.5,-1.65625c-0.21803,-0.63994 -0.71754,-1.05355 -1.1875,-1.03125zm-2.0625,1.6875c-0.13415,0.00629 -0.25909,0.05412 -0.375,0.125c-0.46363,0.28351 -0.52418,0.99206 -0.15625,1.59375c0.36793,0.60169 1.03637,0.87726 1.5,0.59375c0.46363,-0.28351 0.52418,-1.02331 0.15625,-1.625c-0.27595,-0.45127 -0.72256,-0.70636 -1.125,-0.6875zm-1.65625,2.25c-0.11585,0.02285 -0.22201,0.07915 -0.3125,0.15625c-0.36196,0.30838 -0.31492,0.95782 0.09375,1.4375c0.40867,0.47968 1.01304,0.62088 1.375,0.3125c0.36196,-0.30838 0.34617,-0.95783 -0.0625,-1.4375c-0.3065,-0.35976 -0.74619,-0.53731 -1.09375,-0.46875zm7.84375,0.0625c-0.99054,0 -2.66053,0.20791 -4.25,1.03125c-1.58947,0.82334 -3.11228,2.4211 -3.1875,4.875c-0.06986,2.29777 0.64872,3.89989 1.28125,5.28125c0.63253,1.38136 1.1875,2.56093 1.1875,4.5c0,0.98935 0.28666,1.98159 0.875,2.8125c0.58834,0.83091 1.56962,1.5 2.75,1.5c1.41794,0 2.53482,-0.4991 3.15625,-1.34375c0.62143,-0.84465 0.72264,-1.81679 0.75,-2.71875c0.05401,-1.7615 -0.60044,-2.95315 -1.125,-3.78125c-0.52456,-0.8281 -0.875,-1.28292 -0.875,-2.375c0,-1.39355 0.51099,-1.86809 1.25,-2.65625c0.73901,-0.78816 1.75,-1.88927 1.75,-3.75c0,-1.32488 -0.64459,-2.36076 -1.4375,-2.84375c-0.79291,-0.48299 -1.58734,-0.53125 -2.125,-0.53125z"/>
 </g>
</svg>
